<?xml version="1.0" encoding="UTF-8" standalone="no"?>
<svg
   xmlns:dc="http://purl.org/dc/elements/1.1/"
   xmlns:cc="http://creativecommons.org/ns#"
   xmlns:rdf="http://www.w3.org/1999/02/22-rdf-syntax-ns#"
   xmlns:svg="http://www.w3.org/2000/svg"
   xmlns="http://www.w3.org/2000/svg"
   xmlns:sodipodi="http://sodipodi.sourceforge.net/DTD/sodipodi-0.dtd"
   xmlns:inkscape="http://www.inkscape.org/namespaces/inkscape"
   inkscape:version="0.92.5 (2060ec1f9f, 2020-04-08)"
   sodipodi:docname="edit.svg"
   viewBox="0 0 480 480"
   height="480"
   width="480"
   id="svg885"
   version="1.1">
  <metadata
     id="metadata891">
    <rdf:RDF>
      <cc:Work
         rdf:about="">
        <dc:format>image/svg+xml</dc:format>
        <dc:type
           rdf:resource="http://purl.org/dc/dcmitype/StillImage" />
        <dc:title />
      </cc:Work>
    </rdf:RDF>
  </metadata>
  <defs
     id="defs889" />
  <sodipodi:namedview
     inkscape:current-layer="g1524"
     inkscape:window-maximized="1"
     inkscape:window-y="0"
     inkscape:window-x="0"
     inkscape:cy="240"
     inkscape:cx="170.23256"
     inkscape:zoom="0.89583333"
     showgrid="false"
     id="namedview887"
     inkscape:window-height="692"
     inkscape:window-width="1366"
     inkscape:pageshadow="2"
     inkscape:pageopacity="0"
     guidetolerance="10"
     gridtolerance="10"
     objecttolerance="10"
     borderopacity="1"
     bordercolor="#666666"
     pagecolor="#ffffff" />
  <g
     id="g893"
     inkscape:label="Image"
     inkscape:groupmode="layer">
    <g
       id="g1524">
      <path
         id="path1532"
         d="m 214.85816,382.55887 -34.85078,-52.40193 0.0234,-8.7863 0.0234,-8.78629 23.06635,34.8523 23.06634,34.8523 h 24.10782 24.10782 l 23.06634,-34.8523 23.06636,-34.8523 0.0234,8.78629 0.0234,8.7863 -34.85078,52.40193 c -19.16793,28.82106 -35.11436,52.40193 -35.43653,52.40193 -0.32216,0 -16.26859,-23.58087 -35.43652,-52.40193 z m -34.57577,-202.7334 0.3077,-132.173126 3.23164,-4.883047 c 1.7774,-2.685678 5.42915,-6.337291 8.11499,-8.114695 l 4.88334,-3.231643 h 53.47462 53.47463 l 4.88334,3.231643 c 2.68584,1.777404 6.33759,5.429017 8.11498,8.114695 l 3.23165,4.883047 0.30769,132.173126 0.30771,132.17313 h -8.53573 -8.53572 l -9.05169,-9.10509 -9.05168,-9.10509 v -96.33043 -96.33044 h -35.14518 -35.14517 v 96.38384 96.38384 l -9.10508,9.05168 -9.1051,9.05169 h -8.48232 -8.48233 z"
         style="fill:#354f52;fill-opacity:1;stroke-width:0.99999994"
         inkscape:connector-curvature="0" />
      <path
         id="path1530"
         d="m 237.60139,399.86153 -11.99827,-17.57258 h 24.69156 24.69156 l -11.99827,17.57258 c -6.59904,9.66493 -12.31102,17.57259 -12.69329,17.57259 -0.38226,0 -6.09424,-7.90766 -12.69329,-17.57259 z M 180.00434,77.883625 c 0,-27.007672 1.01851,-32.090683 7.82741,-39.063632 7.51212,-7.693106 9.76768,-7.982787 62.1568,-7.982787 30.08185,0 47.93606,0.455064 51.3239,1.308134 3.05355,0.768893 7.36339,3.216765 10.45515,5.93824 7.79555,6.861906 8.81743,11.477557 8.81743,39.826486 v 23.217484 h -70.29035 -70.29034 z"
         style="fill:#2f3e46;fill-opacity:1;stroke-width:0.99999994"
         inkscape:connector-curvature="0" />
      <path
         id="path1528"
         d="m 238.25207,399.58282 -11.37189,-16.70812 11.70725,-0.33386 c 6.43899,-0.18362 16.98032,-0.18362 23.42518,0 l 11.71792,0.33386 -11.18664,16.40108 c -6.15266,9.02059 -11.57665,16.53925 -12.0533,16.70812 -0.47665,0.16887 -5.98399,-7.21161 -12.23852,-16.40108 z"
         style="fill:#767676;fill-opacity:1;stroke-width:0.99999994"
         inkscape:connector-curvature="0" />
      <path
         id="path1526"
         d="m 239.11275,399.70682 c -5.77,-8.48064 -10.66665,-15.86903 -10.88142,-16.41861 -0.21479,-0.54959 9.66979,-0.99926 21.96573,-0.99926 12.29593,0 22.35623,0.26483 22.35623,0.5885 0,1.00379 -21.15868,31.60945 -22.07998,31.93832 -0.47829,0.17073 -5.59054,-6.6283 -11.36056,-15.10895 z"
         style="fill:#2f3e46;fill-opacity:1;stroke-width:0.99999994"
         inkscape:connector-curvature="0" />
    </g>
  </g>
</svg>
